<mxfile host="Electron" agent="Mozilla/5.0 (Windows NT 10.0; Win64; x64) AppleWebKit/537.36 (KHTML, like Gecko) draw.io/27.0.9 Chrome/134.0.6998.205 Electron/35.4.0 Safari/537.36" version="27.0.9">
  <diagram name="Page-1" id="xewKWgBjXvOiBmcPuqeF">
    <mxGraphModel dx="1869" dy="1285" grid="1" gridSize="10" guides="1" tooltips="1" connect="1" arrows="1" fold="1" page="1" pageScale="1" pageWidth="1169" pageHeight="1654" math="0" shadow="0">
      <root>
        <mxCell id="0" />
        <mxCell id="1" parent="0" />
        <mxCell id="pwTEyGt1ARerC-elwr2G-2" value="" style="swimlane;startSize=0;" vertex="1" parent="1">
          <mxGeometry x="360" y="200" width="590" height="1140" as="geometry" />
        </mxCell>
        <mxCell id="pwTEyGt1ARerC-elwr2G-10" value="REGISTER ACCOUNT" style="ellipse;whiteSpace=wrap;html=1;" vertex="1" parent="pwTEyGt1ARerC-elwr2G-2">
          <mxGeometry x="20" y="100" width="140" height="70" as="geometry" />
        </mxCell>
        <mxCell id="pwTEyGt1ARerC-elwr2G-9" value="LOGIN" style="ellipse;whiteSpace=wrap;html=1;" vertex="1" parent="pwTEyGt1ARerC-elwr2G-2">
          <mxGeometry x="30" y="210" width="140" height="70" as="geometry" />
        </mxCell>
        <mxCell id="pwTEyGt1ARerC-elwr2G-3" value="VIEW BALANCE" style="ellipse;whiteSpace=wrap;html=1;" vertex="1" parent="pwTEyGt1ARerC-elwr2G-2">
          <mxGeometry x="20" y="330" width="140" height="70" as="geometry" />
        </mxCell>
        <mxCell id="pwTEyGt1ARerC-elwr2G-8" value="TRANSFER MONEY" style="ellipse;whiteSpace=wrap;html=1;" vertex="1" parent="pwTEyGt1ARerC-elwr2G-2">
          <mxGeometry x="140" y="410" width="140" height="70" as="geometry" />
        </mxCell>
        <mxCell id="pwTEyGt1ARerC-elwr2G-7" value="VIEW TRANSACTION HISTORY" style="ellipse;whiteSpace=wrap;html=1;" vertex="1" parent="pwTEyGt1ARerC-elwr2G-2">
          <mxGeometry x="30" y="530" width="140" height="70" as="geometry" />
        </mxCell>
        <mxCell id="pwTEyGt1ARerC-elwr2G-6" value="ACCESS FINANCIAL CONTENT" style="ellipse;whiteSpace=wrap;html=1;" vertex="1" parent="pwTEyGt1ARerC-elwr2G-2">
          <mxGeometry x="20" y="637" width="140" height="70" as="geometry" />
        </mxCell>
        <mxCell id="pwTEyGt1ARerC-elwr2G-5" value="MANAGE PROFILE" style="ellipse;whiteSpace=wrap;html=1;" vertex="1" parent="pwTEyGt1ARerC-elwr2G-2">
          <mxGeometry x="30" y="750" width="140" height="70" as="geometry" />
        </mxCell>
        <mxCell id="pwTEyGt1ARerC-elwr2G-4" value="RECEIVE NOTIFICATION" style="ellipse;whiteSpace=wrap;html=1;" vertex="1" parent="pwTEyGt1ARerC-elwr2G-2">
          <mxGeometry x="20" y="850" width="140" height="70" as="geometry" />
        </mxCell>
        <mxCell id="pwTEyGt1ARerC-elwr2G-13" value="MAKE PAYMENT" style="ellipse;whiteSpace=wrap;html=1;" vertex="1" parent="pwTEyGt1ARerC-elwr2G-2">
          <mxGeometry x="20" y="950" width="140" height="70" as="geometry" />
        </mxCell>
        <mxCell id="pwTEyGt1ARerC-elwr2G-12" value="MULTI-CURRENCY TRANSACTION" style="ellipse;whiteSpace=wrap;html=1;" vertex="1" parent="pwTEyGt1ARerC-elwr2G-2">
          <mxGeometry x="30" y="1050" width="140" height="70" as="geometry" />
        </mxCell>
        <mxCell id="pwTEyGt1ARerC-elwr2G-16" value="MANAGE USERS" style="ellipse;whiteSpace=wrap;html=1;" vertex="1" parent="pwTEyGt1ARerC-elwr2G-2">
          <mxGeometry x="340" y="250" width="140" height="70" as="geometry" />
        </mxCell>
        <mxCell id="pwTEyGt1ARerC-elwr2G-15" value="MONITORING TRANSACTIONS" style="ellipse;whiteSpace=wrap;html=1;" vertex="1" parent="pwTEyGt1ARerC-elwr2G-2">
          <mxGeometry x="310" y="340" width="140" height="70" as="geometry" />
        </mxCell>
        <mxCell id="pwTEyGt1ARerC-elwr2G-14" value="UPDATE SYSTEM CONTENT" style="ellipse;whiteSpace=wrap;html=1;" vertex="1" parent="pwTEyGt1ARerC-elwr2G-2">
          <mxGeometry x="410" y="660" width="140" height="70" as="geometry" />
        </mxCell>
        <mxCell id="pwTEyGt1ARerC-elwr2G-32" value="FINTECH MOBILE APPLICATION" style="text;html=1;align=center;verticalAlign=middle;whiteSpace=wrap;rounded=0;" vertex="1" parent="pwTEyGt1ARerC-elwr2G-2">
          <mxGeometry x="100" y="30" width="330" height="30" as="geometry" />
        </mxCell>
        <mxCell id="pwTEyGt1ARerC-elwr2G-40" value="&amp;lt;&amp;lt;include&amp;gt;&amp;gt;" style="endArrow=open;endSize=12;dashed=1;html=1;rounded=0;entryX=0;entryY=0.5;entryDx=0;entryDy=0;exitX=1;exitY=0.5;exitDx=0;exitDy=0;" edge="1" parent="pwTEyGt1ARerC-elwr2G-2" source="pwTEyGt1ARerC-elwr2G-9" target="pwTEyGt1ARerC-elwr2G-16">
          <mxGeometry width="160" relative="1" as="geometry">
            <mxPoint x="-90" y="560" as="sourcePoint" />
            <mxPoint x="70" y="560" as="targetPoint" />
          </mxGeometry>
        </mxCell>
        <mxCell id="pwTEyGt1ARerC-elwr2G-39" value="&amp;lt;&amp;lt;include&amp;gt;&amp;gt;" style="endArrow=open;endSize=12;dashed=1;html=1;rounded=0;entryX=0;entryY=0;entryDx=0;entryDy=0;exitX=0;exitY=1;exitDx=0;exitDy=0;" edge="1" parent="pwTEyGt1ARerC-elwr2G-2" source="pwTEyGt1ARerC-elwr2G-9" target="pwTEyGt1ARerC-elwr2G-3">
          <mxGeometry width="160" relative="1" as="geometry">
            <mxPoint x="-90" y="560" as="sourcePoint" />
            <mxPoint x="70" y="560" as="targetPoint" />
          </mxGeometry>
        </mxCell>
        <mxCell id="pwTEyGt1ARerC-elwr2G-41" value="EMAIL/PHONE VERIFICATION" style="ellipse;whiteSpace=wrap;html=1;" vertex="1" parent="pwTEyGt1ARerC-elwr2G-2">
          <mxGeometry x="370" y="80" width="140" height="70" as="geometry" />
        </mxCell>
        <mxCell id="pwTEyGt1ARerC-elwr2G-42" value="&amp;lt;&amp;lt;extend&amp;gt;&amp;gt;" style="endArrow=open;endSize=12;dashed=1;html=1;rounded=0;entryX=1.002;entryY=0.286;entryDx=0;entryDy=0;entryPerimeter=0;exitX=0;exitY=0.5;exitDx=0;exitDy=0;" edge="1" parent="pwTEyGt1ARerC-elwr2G-2" source="pwTEyGt1ARerC-elwr2G-41" target="pwTEyGt1ARerC-elwr2G-10">
          <mxGeometry width="160" relative="1" as="geometry">
            <mxPoint x="-90" y="560" as="sourcePoint" />
            <mxPoint x="70" y="560" as="targetPoint" />
          </mxGeometry>
        </mxCell>
        <mxCell id="pwTEyGt1ARerC-elwr2G-17" value="USER" style="shape=umlActor;verticalLabelPosition=bottom;verticalAlign=top;html=1;" vertex="1" parent="1">
          <mxGeometry x="50" y="695" width="70" height="160" as="geometry" />
        </mxCell>
        <mxCell id="pwTEyGt1ARerC-elwr2G-18" value="ADMIN" style="shape=umlActor;verticalLabelPosition=bottom;verticalAlign=top;html=1;" vertex="1" parent="1">
          <mxGeometry x="980" y="450" width="70" height="160" as="geometry" />
        </mxCell>
        <mxCell id="pwTEyGt1ARerC-elwr2G-19" value="" style="endArrow=none;html=1;rounded=0;exitX=0.5;exitY=0.5;exitDx=0;exitDy=0;exitPerimeter=0;entryX=0;entryY=0.5;entryDx=0;entryDy=0;" edge="1" parent="1" source="pwTEyGt1ARerC-elwr2G-17" target="pwTEyGt1ARerC-elwr2G-10">
          <mxGeometry relative="1" as="geometry">
            <mxPoint x="470" y="850" as="sourcePoint" />
            <mxPoint x="630" y="850" as="targetPoint" />
          </mxGeometry>
        </mxCell>
        <mxCell id="pwTEyGt1ARerC-elwr2G-20" value="" style="endArrow=none;html=1;rounded=0;exitX=0.5;exitY=0.5;exitDx=0;exitDy=0;exitPerimeter=0;entryX=0;entryY=0.5;entryDx=0;entryDy=0;" edge="1" parent="1" source="pwTEyGt1ARerC-elwr2G-17" target="pwTEyGt1ARerC-elwr2G-9">
          <mxGeometry relative="1" as="geometry">
            <mxPoint x="470" y="850" as="sourcePoint" />
            <mxPoint x="630" y="850" as="targetPoint" />
          </mxGeometry>
        </mxCell>
        <mxCell id="pwTEyGt1ARerC-elwr2G-21" value="" style="endArrow=none;html=1;rounded=0;exitX=0.5;exitY=0.5;exitDx=0;exitDy=0;exitPerimeter=0;entryX=0;entryY=0.5;entryDx=0;entryDy=0;" edge="1" parent="1" source="pwTEyGt1ARerC-elwr2G-17" target="pwTEyGt1ARerC-elwr2G-8">
          <mxGeometry relative="1" as="geometry">
            <mxPoint x="470" y="850" as="sourcePoint" />
            <mxPoint x="630" y="850" as="targetPoint" />
          </mxGeometry>
        </mxCell>
        <mxCell id="pwTEyGt1ARerC-elwr2G-22" value="" style="endArrow=none;html=1;rounded=0;exitX=0.5;exitY=0.5;exitDx=0;exitDy=0;exitPerimeter=0;entryX=0;entryY=0.5;entryDx=0;entryDy=0;" edge="1" parent="1" source="pwTEyGt1ARerC-elwr2G-17" target="pwTEyGt1ARerC-elwr2G-3">
          <mxGeometry relative="1" as="geometry">
            <mxPoint x="470" y="850" as="sourcePoint" />
            <mxPoint x="630" y="850" as="targetPoint" />
          </mxGeometry>
        </mxCell>
        <mxCell id="pwTEyGt1ARerC-elwr2G-23" value="" style="endArrow=none;html=1;rounded=0;exitX=0.5;exitY=0.5;exitDx=0;exitDy=0;exitPerimeter=0;entryX=0;entryY=0;entryDx=0;entryDy=0;" edge="1" parent="1" source="pwTEyGt1ARerC-elwr2G-17" target="pwTEyGt1ARerC-elwr2G-7">
          <mxGeometry relative="1" as="geometry">
            <mxPoint x="470" y="850" as="sourcePoint" />
            <mxPoint x="300" y="770" as="targetPoint" />
          </mxGeometry>
        </mxCell>
        <mxCell id="pwTEyGt1ARerC-elwr2G-24" value="" style="endArrow=none;html=1;rounded=0;exitX=0.5;exitY=0.5;exitDx=0;exitDy=0;exitPerimeter=0;entryX=0;entryY=0;entryDx=0;entryDy=0;" edge="1" parent="1" source="pwTEyGt1ARerC-elwr2G-17" target="pwTEyGt1ARerC-elwr2G-6">
          <mxGeometry relative="1" as="geometry">
            <mxPoint x="220" y="830" as="sourcePoint" />
            <mxPoint x="380" y="830" as="targetPoint" />
          </mxGeometry>
        </mxCell>
        <mxCell id="pwTEyGt1ARerC-elwr2G-25" value="" style="endArrow=none;html=1;rounded=0;exitX=0.5;exitY=0.5;exitDx=0;exitDy=0;exitPerimeter=0;entryX=0;entryY=0;entryDx=0;entryDy=0;" edge="1" parent="1" source="pwTEyGt1ARerC-elwr2G-17" target="pwTEyGt1ARerC-elwr2G-5">
          <mxGeometry relative="1" as="geometry">
            <mxPoint x="220" y="830" as="sourcePoint" />
            <mxPoint x="380" y="830" as="targetPoint" />
          </mxGeometry>
        </mxCell>
        <mxCell id="pwTEyGt1ARerC-elwr2G-26" value="" style="endArrow=none;html=1;rounded=0;exitX=0.5;exitY=0.5;exitDx=0;exitDy=0;exitPerimeter=0;entryX=0;entryY=0.5;entryDx=0;entryDy=0;" edge="1" parent="1" source="pwTEyGt1ARerC-elwr2G-17" target="pwTEyGt1ARerC-elwr2G-4">
          <mxGeometry relative="1" as="geometry">
            <mxPoint x="260" y="1000" as="sourcePoint" />
            <mxPoint x="420" y="1000" as="targetPoint" />
          </mxGeometry>
        </mxCell>
        <mxCell id="pwTEyGt1ARerC-elwr2G-27" value="" style="endArrow=none;html=1;rounded=0;exitX=0.5;exitY=0.5;exitDx=0;exitDy=0;exitPerimeter=0;entryX=0;entryY=0.5;entryDx=0;entryDy=0;" edge="1" parent="1" source="pwTEyGt1ARerC-elwr2G-17" target="pwTEyGt1ARerC-elwr2G-13">
          <mxGeometry relative="1" as="geometry">
            <mxPoint x="260" y="1000" as="sourcePoint" />
            <mxPoint x="420" y="1000" as="targetPoint" />
          </mxGeometry>
        </mxCell>
        <mxCell id="pwTEyGt1ARerC-elwr2G-28" value="" style="endArrow=none;html=1;rounded=0;entryX=0;entryY=0.5;entryDx=0;entryDy=0;exitX=0.5;exitY=0.5;exitDx=0;exitDy=0;exitPerimeter=0;" edge="1" parent="1" source="pwTEyGt1ARerC-elwr2G-17" target="pwTEyGt1ARerC-elwr2G-12">
          <mxGeometry relative="1" as="geometry">
            <mxPoint x="260" y="1000" as="sourcePoint" />
            <mxPoint x="420" y="1000" as="targetPoint" />
          </mxGeometry>
        </mxCell>
        <mxCell id="pwTEyGt1ARerC-elwr2G-29" value="" style="endArrow=none;html=1;rounded=0;entryX=0.5;entryY=0.5;entryDx=0;entryDy=0;entryPerimeter=0;exitX=1;exitY=0.5;exitDx=0;exitDy=0;" edge="1" parent="1" source="pwTEyGt1ARerC-elwr2G-16" target="pwTEyGt1ARerC-elwr2G-18">
          <mxGeometry relative="1" as="geometry">
            <mxPoint x="420" y="810" as="sourcePoint" />
            <mxPoint x="580" y="810" as="targetPoint" />
          </mxGeometry>
        </mxCell>
        <mxCell id="pwTEyGt1ARerC-elwr2G-30" value="" style="endArrow=none;html=1;rounded=0;entryX=0.5;entryY=0.5;entryDx=0;entryDy=0;entryPerimeter=0;exitX=0.916;exitY=0.241;exitDx=0;exitDy=0;exitPerimeter=0;" edge="1" parent="1" source="pwTEyGt1ARerC-elwr2G-15" target="pwTEyGt1ARerC-elwr2G-18">
          <mxGeometry relative="1" as="geometry">
            <mxPoint x="420" y="810" as="sourcePoint" />
            <mxPoint x="580" y="810" as="targetPoint" />
          </mxGeometry>
        </mxCell>
        <mxCell id="pwTEyGt1ARerC-elwr2G-31" value="" style="endArrow=none;html=1;rounded=0;entryX=0.5;entryY=0.5;entryDx=0;entryDy=0;entryPerimeter=0;exitX=0.5;exitY=0;exitDx=0;exitDy=0;" edge="1" parent="1" source="pwTEyGt1ARerC-elwr2G-14" target="pwTEyGt1ARerC-elwr2G-18">
          <mxGeometry relative="1" as="geometry">
            <mxPoint x="420" y="810" as="sourcePoint" />
            <mxPoint x="580" y="810" as="targetPoint" />
          </mxGeometry>
        </mxCell>
        <mxCell id="pwTEyGt1ARerC-elwr2G-33" value="" style="endArrow=none;html=1;rounded=0;entryX=0.5;entryY=0.5;entryDx=0;entryDy=0;entryPerimeter=0;exitX=1;exitY=0.5;exitDx=0;exitDy=0;" edge="1" parent="1" source="pwTEyGt1ARerC-elwr2G-10" target="pwTEyGt1ARerC-elwr2G-18">
          <mxGeometry relative="1" as="geometry">
            <mxPoint x="270" y="760" as="sourcePoint" />
            <mxPoint x="1000" y="530" as="targetPoint" />
          </mxGeometry>
        </mxCell>
        <mxCell id="pwTEyGt1ARerC-elwr2G-34" value="" style="endArrow=none;html=1;rounded=0;entryX=0.5;entryY=0.5;entryDx=0;entryDy=0;entryPerimeter=0;exitX=1;exitY=0.5;exitDx=0;exitDy=0;" edge="1" parent="1" source="pwTEyGt1ARerC-elwr2G-7" target="pwTEyGt1ARerC-elwr2G-18">
          <mxGeometry relative="1" as="geometry">
            <mxPoint x="270" y="760" as="sourcePoint" />
            <mxPoint x="430" y="760" as="targetPoint" />
          </mxGeometry>
        </mxCell>
        <mxCell id="pwTEyGt1ARerC-elwr2G-35" value="" style="endArrow=none;html=1;rounded=0;entryX=0.5;entryY=0.5;entryDx=0;entryDy=0;entryPerimeter=0;exitX=1;exitY=0.5;exitDx=0;exitDy=0;" edge="1" parent="1" source="pwTEyGt1ARerC-elwr2G-6" target="pwTEyGt1ARerC-elwr2G-18">
          <mxGeometry relative="1" as="geometry">
            <mxPoint x="270" y="760" as="sourcePoint" />
            <mxPoint x="430" y="760" as="targetPoint" />
          </mxGeometry>
        </mxCell>
        <mxCell id="pwTEyGt1ARerC-elwr2G-36" value="" style="endArrow=none;html=1;rounded=0;entryX=0.5;entryY=0.5;entryDx=0;entryDy=0;entryPerimeter=0;exitX=1.007;exitY=0.343;exitDx=0;exitDy=0;exitPerimeter=0;" edge="1" parent="1" source="pwTEyGt1ARerC-elwr2G-5" target="pwTEyGt1ARerC-elwr2G-18">
          <mxGeometry relative="1" as="geometry">
            <mxPoint x="270" y="760" as="sourcePoint" />
            <mxPoint x="430" y="760" as="targetPoint" />
          </mxGeometry>
        </mxCell>
        <mxCell id="pwTEyGt1ARerC-elwr2G-37" value="" style="endArrow=none;html=1;rounded=0;entryX=0.5;entryY=0.5;entryDx=0;entryDy=0;entryPerimeter=0;exitX=1;exitY=0.5;exitDx=0;exitDy=0;" edge="1" parent="1" source="pwTEyGt1ARerC-elwr2G-4" target="pwTEyGt1ARerC-elwr2G-18">
          <mxGeometry relative="1" as="geometry">
            <mxPoint x="270" y="760" as="sourcePoint" />
            <mxPoint x="430" y="760" as="targetPoint" />
          </mxGeometry>
        </mxCell>
        <mxCell id="pwTEyGt1ARerC-elwr2G-38" value="" style="endArrow=none;html=1;rounded=0;entryX=0.5;entryY=0.5;entryDx=0;entryDy=0;entryPerimeter=0;exitX=1;exitY=0;exitDx=0;exitDy=0;" edge="1" parent="1" source="pwTEyGt1ARerC-elwr2G-13" target="pwTEyGt1ARerC-elwr2G-18">
          <mxGeometry relative="1" as="geometry">
            <mxPoint x="270" y="760" as="sourcePoint" />
            <mxPoint x="430" y="760" as="targetPoint" />
          </mxGeometry>
        </mxCell>
      </root>
    </mxGraphModel>
  </diagram>
</mxfile>
